<?xml version="1.0" encoding="UTF-8" standalone="no"?>
<!-- Created with Inkscape (http://www.inkscape.org/) -->

<svg
   xmlns:dc="http://purl.org/dc/elements/1.1/"
   xmlns:cc="http://creativecommons.org/ns#"
   xmlns:rdf="http://www.w3.org/1999/02/22-rdf-syntax-ns#"
   xmlns:svg="http://www.w3.org/2000/svg"
   xmlns="http://www.w3.org/2000/svg"
   xmlns:sodipodi="http://sodipodi.sourceforge.net/DTD/sodipodi-0.dtd"
   xmlns:inkscape="http://www.inkscape.org/namespaces/inkscape"
   width="11.49292mm"
   height="11.209469mm"
   viewBox="0 0 11.49292 11.209469"
   version="1.1"
   id="svg1107"
   inkscape:version="0.92.3 (2405546, 2018-03-11)"
   sodipodi:docname="github.svg">
  <defs
     id="defs1101" />
  <sodipodi:namedview
     id="base"
     pagecolor="#ffffff"
     bordercolor="#666666"
     borderopacity="1.0"
     inkscape:pageopacity="0.0"
     inkscape:pageshadow="2"
     inkscape:zoom="11.2"
     inkscape:cx="1.0050583"
     inkscape:cy="9.7546707"
     inkscape:document-units="mm"
     inkscape:current-layer="layer1"
     showgrid="false"
     fit-margin-top="0"
     fit-margin-left="0"
     fit-margin-right="0"
     fit-margin-bottom="0"
     inkscape:window-width="3840"
     inkscape:window-height="2065"
     inkscape:window-x="0"
     inkscape:window-y="0"
     inkscape:window-maximized="1" />
  <metadata
     id="metadata1104">
    <rdf:RDF>
      <cc:Work
         rdf:about="">
        <dc:format>image/svg+xml</dc:format>
        <dc:type
           rdf:resource="http://purl.org/dc/dcmitype/StillImage" />
        <dc:title></dc:title>
      </cc:Work>
    </rdf:RDF>
  </metadata>
  <g
     inkscape:label="Layer 1"
     inkscape:groupmode="layer"
     id="layer1"
     transform="translate(333.82991,211.31307)">
    <path
       inkscape:connector-curvature="0"
       id="path16"
       style="fill:#1b1817;fill-opacity:1;fill-rule:evenodd;stroke:none;stroke-width:0.03527778"
       d="m -328.08386,-211.31307 c -3.17289,0 -5.74605,2.57281 -5.74605,5.74675 0,2.53859 1.64642,4.69265 3.92995,5.45289 0.28751,0.0526 0.39229,-0.12488 0.39229,-0.27728 0,-0.13653 -0.005,-0.49777 -0.008,-0.9772 -1.59844,0.34713 -1.9357,-0.77047 -1.9357,-0.77047 -0.2614,-0.66392 -0.63817,-0.84066 -0.63817,-0.84066 -0.52176,-0.35631 0.0395,-0.34925 0.0395,-0.34925 0.57679,0.0406 0.88018,0.59231 0.88018,0.59231 0.51259,0.87806 1.34514,0.62442 1.67252,0.47731 0.0522,-0.37112 0.20073,-0.62442 0.36477,-0.768 -1.27599,-0.14534 -2.61761,-0.63817 -2.61761,-2.84021 0,-0.62759 0.22402,-1.14018 0.59161,-1.54199 -0.0593,-0.14535 -0.25647,-0.72955 0.0564,-1.52083 0,0 0.48225,-0.15452 1.5801,0.58879 0.45825,-0.12736 0.95003,-0.19086 1.43862,-0.19333 0.48825,0.002 0.97967,0.066 1.43863,0.19333 1.09714,-0.74331 1.57868,-0.58879 1.57868,-0.58879 0.31362,0.79128 0.11642,1.37548 0.0575,1.52083 0.3683,0.40181 0.59055,0.9144 0.59055,1.54199 0,2.20768 -1.34373,2.69345 -2.6236,2.83562 0.20602,0.17745 0.38982,0.52811 0.38982,1.06433 0,0.768 -0.007,1.38783 -0.007,1.57622 0,0.15381 0.10371,0.33267 0.39511,0.27657 2.28177,-0.76164 3.92677,-2.91394 3.92677,-5.45218 0,-3.17394 -2.57316,-5.74675 -5.7471,-5.74675" />
  </g>
</svg>
